<svg xmlns="http://www.w3.org/2000/svg" viewBox="0 0 403.79 111.85"><defs><style>.cls-1{fill:#39c;}.cls-2{fill:#fff;}</style></defs><title>LogoHorizontal</title><g id="Layer_2" data-name="Layer 2"><g id="Layer_1-2" data-name="Layer 1"><rect class="cls-1" x="356.79" y="83.61" width="47" height="28.24"/><rect class="cls-1" width="403.78" height="94.85"/><path class="cls-2" d="M298.41,67.63H324.7v4.43H293.41V23h30.45v4.43H298.41V44.25h23.8v4.43h-23.8Z"/><path class="cls-2" d="M334.48,23h16.31A29.35,29.35,0,0,1,360,24.47a25.42,25.42,0,0,1,8.33,4.62,23.26,23.26,0,0,1,6,7.69,23.87,23.87,0,0,1,2.3,10.73,23.75,23.75,0,0,1-2.3,10.75,23.35,23.35,0,0,1-6,7.66A25.42,25.42,0,0,1,360,70.54a29.06,29.06,0,0,1-9.19,1.52H334.48Zm5,44.68h9.92a25,25,0,0,0,9.68-1.74,20.13,20.13,0,0,0,6.83-4.55A18.49,18.49,0,0,0,370,54.93a21.09,21.09,0,0,0,0-14.85,18.58,18.58,0,0,0-4.06-6.41,20.27,20.27,0,0,0-6.83-4.55,25,25,0,0,0-9.68-1.74h-9.92Z"/><rect class="cls-2" x="3.97" y="4.34" width="262.32" height="86.72"/><path class="cls-1" d="M43.11,23.14h5V44.43H74.88V23.14h5V72.25h-5V49H48.1V72.25h-5Z"/><path class="cls-1" d="M110.61,28.68l-18,43.57H87.09l21.23-49.11h4.86l21.08,49.11h-5.54Z"/><path class="cls-1" d="M181.58,64.28a20.64,20.64,0,0,1-3,3.54,19.84,19.84,0,0,1-4.09,2.93,22.46,22.46,0,0,1-5.13,2,24.26,24.26,0,0,1-6.14.74,26.83,26.83,0,0,1-10.27-1.94,24.11,24.11,0,0,1-8.12-5.38A24.37,24.37,0,0,1,139.5,58a27.38,27.38,0,0,1-1.9-10.34,26.85,26.85,0,0,1,1.94-10.34A24.46,24.46,0,0,1,153,23.83a26.17,26.17,0,0,1,10.17-1.94,25.37,25.37,0,0,1,5.3.56A25.68,25.68,0,0,1,173.39,24a21,21,0,0,1,4.16,2.46,14.25,14.25,0,0,1,3.13,3.23l-4.17,3.06a12.26,12.26,0,0,0-2-2.36,14.12,14.12,0,0,0-3-2.08,18.91,18.91,0,0,0-3.78-1.46,16.78,16.78,0,0,0-4.4-.55,20.25,20.25,0,0,0-8.57,1.73,19.28,19.28,0,0,0-6.42,4.66,20.6,20.6,0,0,0-4,6.82,24.05,24.05,0,0,0-1.38,8.15,23.48,23.48,0,0,0,1.42,8.17,20.87,20.87,0,0,0,4.06,6.81,19.44,19.44,0,0,0,6.41,4.66,20.32,20.32,0,0,0,8.51,1.73,19.13,19.13,0,0,0,8-1.74,15.25,15.25,0,0,0,6.39-5.54Z"/><path class="cls-1" d="M195.18,45.2h.06l23.38-22.06h7.15L201,45.41l26.15,26.84H219.8L195.24,46.1h-.06V72.25h-5V23.14h5Z"/><path class="cls-2" d="M368,97.55V102a2.56,2.56,0,0,1,1.92-.81,3.05,3.05,0,0,1,1.26.26,3.13,3.13,0,0,1,1,.7,3.17,3.17,0,0,1,.63,1,3.58,3.58,0,0,1,.23,1.27,3.43,3.43,0,0,1-.24,1.28,3,3,0,0,1-.65,1,3,3,0,0,1-1,.71,3,3,0,0,1-1.23.25,2.31,2.31,0,0,1-1.9-.87v.68h-2.17v-10Zm2.74,6.9a1.41,1.41,0,0,0-.11-.54,1.37,1.37,0,0,0-.3-.45,1.52,1.52,0,0,0-.44-.31,1.26,1.26,0,0,0-.55-.11,1.33,1.33,0,0,0-.54.1,1.4,1.4,0,0,0-.44.31,1.23,1.23,0,0,0-.3.44,1.33,1.33,0,0,0-.12.55,1.41,1.41,0,0,0,.11.54,1.23,1.23,0,0,0,.3.44,1.77,1.77,0,0,0,.45.3,1.29,1.29,0,0,0,.55.11,1.24,1.24,0,0,0,.54-.11,1.46,1.46,0,0,0,.44-.29,1.77,1.77,0,0,0,.3-.45A1.36,1.36,0,0,0,370.78,104.45Z"/><path class="cls-2" d="M376.24,104.8c0,.94.44,1.4,1.32,1.4a1.19,1.19,0,0,0,1.07-.57h2.1a2.94,2.94,0,0,1-3.18,2.11,4.33,4.33,0,0,1-1.43-.23,3.26,3.26,0,0,1-1.11-.67,3,3,0,0,1-.72-1,3.59,3.59,0,0,1-.25-1.34,3.79,3.79,0,0,1,.24-1.39,2.91,2.91,0,0,1,.69-1,3,3,0,0,1,1.07-.67,4.47,4.47,0,0,1,2.83,0,2.81,2.81,0,0,1,1.05.68,2.93,2.93,0,0,1,.66,1.09,4.31,4.31,0,0,1,.23,1.44v.23Zm2.54-1.26a1.31,1.31,0,0,0-.44-.73,1.27,1.27,0,0,0-.82-.28,1.23,1.23,0,0,0-.82.27,1.15,1.15,0,0,0-.4.74Z"/><path class="cls-2" d="M384.56,103.17v4.34h-2.18v-4.34h-.72v-1.81h.72V99.51h2.18v1.85h1.23v1.81Z"/><path class="cls-2" d="M391.48,101.36h2.18v6.15h-2.18v-.68a2.29,2.29,0,0,1-1.89.87,3.1,3.1,0,0,1-1.23-.24,2.85,2.85,0,0,1-1-.69,3.21,3.21,0,0,1-.65-1,3.45,3.45,0,0,1-.23-1.3,3.32,3.32,0,0,1,.86-2.3,3.26,3.26,0,0,1,1-.7,3,3,0,0,1,1.25-.26,2.51,2.51,0,0,1,1.91.81Zm-2.74,3.06a1.42,1.42,0,0,0,.11.55,1.44,1.44,0,0,0,.29.46,1.51,1.51,0,0,0,.45.29,1.3,1.3,0,0,0,.56.11,1.24,1.24,0,0,0,.54-.11,1.51,1.51,0,0,0,.45-.29,1.77,1.77,0,0,0,.3-.45,1.41,1.41,0,0,0,.11-.54,1.5,1.5,0,0,0-.11-.55,1.55,1.55,0,0,0-.3-.44,1.57,1.57,0,0,0-.45-.31,1.4,1.4,0,0,0-.54-.1,1.47,1.47,0,0,0-.56.1,1.57,1.57,0,0,0-.45.31,1.42,1.42,0,0,0-.29.43A1.37,1.37,0,0,0,388.74,104.42Z"/></g></g></svg>